<?xml version="1.0" encoding="UTF-8" standalone="no"?><!DOCTYPE svg PUBLIC "-//W3C//DTD SVG 1.1//EN" "http://www.w3.org/Graphics/SVG/1.1/DTD/svg11.dtd"><svg width="100%" height="100%" viewBox="0 0 5277 5509" version="1.1" xmlns="http://www.w3.org/2000/svg" xmlns:xlink="http://www.w3.org/1999/xlink" xml:space="preserve" xmlns:serif="http://www.serif.com/" style="fill-rule:evenodd;clip-rule:evenodd;stroke-linecap:round;stroke-linejoin:round;stroke-miterlimit:1.5;"><g><path d="M3444.3,5381.27c650.469,-366.377 1575.22,-887.243 1575.22,-887.243c116.124,-65.407 187.971,-188.334 187.971,-321.612c-0,-0 -0,-2489.7 -0,-2489.7c-0,-133.025 -71.577,-255.76 -187.356,-321.265l-2200.25,-1244.85c-112.776,-63.807 -250.751,-63.807 -363.527,-0l-2200.25,1244.85c-115.779,65.505 -187.356,188.24 -187.356,321.265l-0,2489.7c0,133.278 71.847,256.205 187.971,321.612c0,0 1028.39,579.24 1679.02,945.71" style="fill-opacity:0;stroke:#000;stroke-width:137.5px;"/><path d="M1965.49,5434.01c-0.842,-2.493 -7.011,-20.834 -13.929,-42.911c-34.637,-110.528 -117.813,-385.407 -138.134,-433.206c-30.45,-71.624 -143.318,-176.553 -188.501,-223.502c-170.09,-176.74 -311.43,-323.367 -411.812,-449.199c-310.308,-388.984 -306.83,-650.573 -280.018,-1120.81c4.939,-86.625 -6.354,-192.683 19.208,-275.923c5.526,-17.994 24.198,-19.011 46.275,-15.756c43.823,6.459 100.765,35.058 143.921,63.388c27.48,18.04 49.439,35.645 57.377,47.626c26.359,39.781 43.03,92.301 56.042,150.86c20.339,91.53 31.428,197.469 52.48,295c36.992,171.383 105.459,316.078 294.514,326.858c17.835,1.016 56.616,8.964 85.847,8.624c16.712,-0.195 30.868,-3.431 39.705,-9.356c33.432,-22.415 61.618,-71.588 83.712,-133.925c48.113,-135.752 71.024,-334.898 84.421,-420.178c81.119,-516.4 236.369,-1020.96 351.61,-1533.19c12.254,-54.466 67.304,-332.146 127.053,-501.477c14.829,-42.026 29.805,-77.205 44.597,-99.963c7.007,-10.78 12.712,-18.849 19.377,-20.681c69.149,-19.005 119.108,-15.206 154.503,6.338c34.731,21.14 54.457,58.873 65.38,104.654c36.05,151.088 -23.553,386.603 -38.811,481.735c-14.447,90.07 -22.709,184.51 -27.904,275.623c-5.086,89.2 -29.208,172.633 -34.306,262.051c-1.507,26.43 -36.002,194.202 -42.739,268.081c-1.359,14.902 -1.53,26.494 -0.559,33.313c1.072,7.518 3.906,12.36 6.332,15.078c8.996,10.084 21.494,14.035 37.615,10.838c14.387,-2.852 33.35,-12.818 55.067,-27.06c43.839,-28.749 101.666,-75.544 159.227,-97.75c33.592,-12.959 67.019,-17.6 96.507,-0.693c26.912,15.431 43.118,38.83 54.518,64.613c12.559,28.403 19.432,59.702 26.786,88.149c11.589,44.834 26.01,82.622 55.791,99.697c5.578,3.199 13.052,5.049 22.347,4.618c13.213,-0.612 32.173,-6.29 54.181,-15.226c39.06,-15.859 89.341,-41.875 133.297,-59.58c26.199,-10.553 49.708,-18.482 66.231,-17.539c33.548,1.912 58.835,18.051 80.162,36.615c24.539,21.36 44.36,45.926 63.88,61.164c17.319,13.52 34.857,20.423 53.664,17.859c17.266,-2.353 36.847,-13.193 58.753,-39.465c40.27,-48.298 69.696,-168.188 94.552,-307.867c35.903,-201.752 64.319,-445.6 114.909,-560.442c19.843,-45.046 49.848,-103.055 90.42,-142.903c36.817,-36.161 82.81,-56.856 138.332,-32.345c21.932,9.682 38.233,29.443 50.809,56.117c21.28,45.137 31.423,109.08 34.557,183.185c12.621,298.46 -90.807,757.197 -105.148,858.664c-68.093,481.78 -68.863,991.272 -144.12,1467.33c-33.25,210.33 -130.782,401.258 -215.48,592.03c-19.49,43.897 -48.592,84.527 -75.486,126.144c-28.613,44.276 -54.738,89.655 -66.528,140.288c-62.751,269.49 -26.615,107.314 -42.545,386.691c-0.589,10.331 7.321,19.198 17.652,19.787c10.332,0.589 19.198,-7.321 19.787,-17.653c15.666,-274.758 -20.084,-115.286 41.629,-380.321c10.813,-46.439 35.257,-87.83 61.5,-128.439c27.962,-43.269 58.002,-85.641 78.264,-131.28c86.008,-193.722 184.483,-387.809 218.247,-601.391c75.289,-476.257 76.09,-985.958 144.211,-1467.94c14.454,-102.267 118.204,-564.682 105.483,-865.497c-3.383,-79.994 -15.132,-148.867 -38.104,-197.592c-16.927,-35.902 -40.064,-61.399 -69.583,-74.431c-71.962,-31.768 -132.035,-6.971 -179.754,39.897c-43.963,43.178 -76.959,105.729 -98.461,154.54c-51.376,116.627 -81.05,364.1 -117.511,568.989c-14.297,80.344 -29.668,154.009 -48.06,210.077c-11.503,35.066 -23.887,62.971 -38.374,80.346c-13.558,16.26 -24.329,24.866 -35.016,26.323c-6.253,0.852 -11.98,-1.381 -17.751,-4.851c-8.523,-5.123 -16.837,-12.867 -25.632,-21.618c-36.029,-35.85 -78.234,-85.525 -147.123,-89.453c-20.454,-1.166 -49.945,7.131 -82.377,20.195c-43.987,17.717 -94.306,43.749 -133.393,59.619c-12.796,5.195 -24.255,9.271 -33.691,11.318c-4.056,0.88 -9.63,1.051 -10.792,1.077c-12.319,-7.406 -19.505,-20.893 -25.603,-36.927c-7.71,-20.277 -13.025,-44.523 -19.531,-69.394c-14.603,-55.82 -35.516,-113.758 -91.246,-145.712c-34.027,-19.509 -71.902,-19.569 -110.522,-7.994c-51.991,15.582 -105.568,52.871 -150.669,84.451c-23.275,16.298 -44.117,30.953 -61.091,39.321c-5.16,2.545 -9.819,4.476 -13.989,5.365c0.008,-4.919 0.154,-12.138 0.774,-18.932c6.768,-74.224 41.319,-242.798 42.833,-269.351c5.099,-89.419 29.221,-172.851 34.307,-262.051c5.123,-89.855 13.243,-182.994 27.49,-271.819c15.718,-97.997 75.396,-340.739 38.261,-496.377c-13.472,-56.464 -39.523,-101.911 -82.358,-127.983c-42.171,-25.669 -101.552,-33.108 -183.939,-10.465c-10.289,2.828 -21.463,10.708 -32.186,24.228c-18.667,23.536 -38.336,66.599 -57.213,120.097c-60.259,170.777 -115.917,450.793 -128.275,505.724c-115.421,513.025 -270.825,1018.4 -352.071,1535.6c-13.18,83.906 -35.384,279.908 -82.721,413.47c-18.816,53.088 -40.778,96.217 -69.249,115.306c-2.304,1.544 -5.701,1.984 -9.558,2.439c-6.323,0.746 -13.616,0.701 -21.271,0.276c-26.449,-1.47 -56.651,-7.417 -71.705,-8.276c-169.719,-9.677 -226.785,-143.476 -259.993,-297.33c-21.068,-97.605 -32.175,-203.623 -52.528,-295.222c-14.117,-63.528 -32.794,-120.283 -61.39,-163.439c-19.822,-29.916 -111.917,-93.46 -189.196,-118.267c-27.445,-8.809 -53.125,-12.697 -73.43,-9.795c-25.675,3.671 -44.223,17.006 -52.055,42.508c-26.39,85.939 -15.7,195.365 -20.799,284.798c-27.432,481.12 -29.346,748.349 288.142,1146.33c100.955,126.551 243.046,274.068 414.107,451.817c43.099,44.784 151.965,143.85 181.01,212.171c22.695,53.382 124.184,392.121 147.396,462.834c4.015,12.232 7.79,18.813 8.457,19.562c6.889,7.722 18.752,8.398 26.474,1.509c6.48,-5.78 7.998,-15.063 4.247,-22.46Z"/><g id="Layer1"><path d="M1993.06,5414.64l-1924.31,-1044.07l0,-2743.75l161.474,-209.211l2407.9,-1348.86l2569.37,1389l-0,2830.53l-191.781,203.447l-1398.56,800.968l-234.45,89.958c-7.705,-123.484 108.742,-588.261 101.873,-354.053l14.066,-86.835l114.113,-201.49l43.115,-73.817l48.645,-142.985l118.161,-259.801l78.09,-618.94l9.388,-142.317l44.365,-610.159l80.78,-514.005l47.238,-601.412l-76.339,-234.865l-115.629,4.194l-77.712,66.66l-58.983,60.177l-107.965,450.694l-103.675,423.895l-53.119,92.307l-152.844,-104.678l-143.744,-2.809l-167.135,84.112l-66.598,-144.945l-83.568,-137.759l-205.71,76.832l-109.734,82.673l-19.059,-52.047l97.397,-653.129l38.772,-334.793l20.185,-233.265l-58.957,-162.047l-85.105,-42.713l-116.998,-0l-55.223,76.191l-50.499,124.95l-168.706,679.912l-249.584,1023.4l-62.852,461.765l-43.627,143.927l-34.376,133.431l-72.437,90.742l-182.733,-27.712l-104.595,-86.016l-54.864,-114.552l-60.221,-313.396l-72.296,-233.665l-129.788,-80.13l-130.243,-39.817l-29.983,31.087l-30.902,213.031l-0,642.521l65.534,203.7l96.094,186.245l376.269,444.357l200.046,204.447l133.549,157.434l96.877,219.215l61.49,126.096l30.957,59.726l26.306,62.993l2.853,9.422Z" style="stroke:#000;stroke-width:8.33px;"/></g></g></svg>