<?xml version="1.0" encoding="UTF-8" standalone="no"?><!DOCTYPE svg PUBLIC "-//W3C//DTD SVG 1.1//EN" "http://www.w3.org/Graphics/SVG/1.1/DTD/svg11.dtd"><svg width="100%" height="100%" viewBox="0 0 15346 2268" version="1.1" xmlns="http://www.w3.org/2000/svg" xmlns:xlink="http://www.w3.org/1999/xlink" xml:space="preserve" xmlns:serif="http://www.serif.com/" style="fill-rule:evenodd;clip-rule:evenodd;stroke-linejoin:round;stroke-miterlimit:2;"><path d="M0,1965.44l0,-977.96l278.311,-301.643l735.327,-0l281.24,304.818l0,225.439l-272.451,0l-0,-130.183l-131.832,-142.883l-486.312,-0l-131.831,142.883l-0,781.098l131.831,142.884l486.312,-0l131.832,-142.884l-0,-130.183l272.451,-0l0,225.439l-281.24,304.818l-735.327,0l-278.311,-301.643Z" style="fill-rule:nonzero;"/><path d="M1573.19,1997.2l0,-390.549l249.015,-269.891l767.553,-0l-0,-266.717l-128.902,-136.533l-477.523,-0l-125.972,136.533l-0,117.482l-272.452,0l-0,-193.686l284.17,-307.994l706.031,-0l284.17,307.994l0,1273.25l-254.874,0l-0,-260.366l-251.945,260.366l-530.256,0l-249.015,-269.891Zm741.186,25.401l275.382,-285.767l-0,-165.11l-641.58,-0l-102.536,111.132l0,231.789l102.536,107.956l366.198,0Z" style="fill-rule:nonzero;"/><rect x="3269.42" y="0" width="272.452" height="2267.09" style="fill-rule:nonzero;"/><rect x="3981.31" y="0" width="272.452" height="2267.09" style="fill-rule:nonzero;"/><path d="M4663.91,1962.27l0,-1276.43l272.452,-0l-0,1184.35l131.831,139.709l272.452,-0l339.832,-368.323l0,-955.733l272.452,-0l0,1581.25l-260.733,0l-0,-314.344l-290.03,314.344l-457.015,0l-281.241,-304.818Z" style="fill-rule:nonzero;"/><path d="M6363.07,685.842l260.733,-0l0,288.942l266.593,-288.942l354.48,-0l219.719,238.139l216.79,-238.139l477.523,-0l284.17,307.994l0,1273.25l-272.452,0l0,-1181.17l-131.831,-142.883l-295.889,-0l-190.423,206.387l-0,1117.67l-263.663,0l-0,-1184.35l-128.902,-139.708l-222.649,-0l-301.747,327.044l-0,997.011l-272.452,0l-0,-1581.25Z" style="fill-rule:nonzero;"/><path d="M8774.12,2159.13l-0,-158.76l99.606,-107.957l155.268,0l99.606,107.957l-0,158.76l-99.606,107.956l-155.268,0l-99.606,-107.956Z" style="fill-rule:nonzero;"/><path d="M9430.35,1959.09l-0,-1959.09l272.451,0l0,965.259l260.734,-279.417l521.467,-0l278.311,304.818l-0,971.61l-278.311,304.818l-770.482,0l-284.17,-307.994Zm925.75,50.804l134.761,-146.059l-0,-774.748l-134.761,-146.058l-333.973,-0l-319.326,346.096l0,574.71l134.762,146.059l518.537,-0Z" style="fill-rule:nonzero;"/><path d="M11129.5,1962.27l0,-1276.43l272.452,-0l0,1184.35l131.832,139.709l272.451,-0l339.833,-368.323l-0,-955.733l272.452,-0l-0,1581.25l-260.734,0l0,-314.344l-290.029,314.344l-457.016,0l-281.241,-304.818Z" style="fill-rule:nonzero;"/><path d="M12726.1,2013.07l873.018,-1076.39l0,-6.35l-843.722,-0l0,-244.49l1177.69,-0l0,254.015l-873.017,1076.39l-0,6.35l873.017,0l0,244.49l-1206.99,0l0,-254.015Z" style="fill-rule:nonzero;"/><path d="M14138.2,2013.07l873.018,-1076.39l0,-6.35l-843.722,-0l0,-244.49l1177.69,-0l0,254.015l-873.017,1076.39l-0,6.35l873.017,0l0,244.49l-1206.99,0l0,-254.015Z" style="fill-rule:nonzero;"/></svg>