<?xml version="1.0" encoding="UTF-8" standalone="no"?><!DOCTYPE svg PUBLIC "-//W3C//DTD SVG 1.1//EN" "http://www.w3.org/Graphics/SVG/1.1/DTD/svg11.dtd"><svg width="100%" height="100%" viewBox="0 0 3034 3492" version="1.1" xmlns="http://www.w3.org/2000/svg" xmlns:xlink="http://www.w3.org/1999/xlink" xml:space="preserve" xmlns:serif="http://www.serif.com/" style="fill-rule:evenodd;clip-rule:evenodd;stroke-linecap:round;stroke-linejoin:round;stroke-miterlimit:1.5;"><path d="M1863.61,1678.92c-134.424,-213.542 -320.653,-376.017 -320.653,-376.017c-31.358,-38.899 -79.837,-57.398 -126.833,-48.398l-877.905,168.122c-46.907,8.982 -85.072,43.969 -99.9,91.58l-281.782,904.783c-14.443,46.375 -4.587,97.842 25.968,135.6l596.124,736.661c31.368,38.764 79.759,57.175 126.666,48.192l877.906,-168.121c46.995,-9 85.209,-44.101 99.978,-91.833l154.277,-498.252" style="fill-opacity:0;stroke:#000;stroke-width:300px;"/><path d="M1212.18,1861.62c145.318,206.283 339.721,358.882 339.721,358.882c33.334,37.221 82.707,53.181 129.173,41.756l868.005,-213.422c46.378,-11.403 82.678,-48.322 95.016,-96.637l234.483,-918.178c12.018,-47.063 -0.493,-97.949 -32.965,-134.072l-633.524,-704.756c-33.336,-37.085 -82.617,-52.962 -128.995,-41.559l-868.005,213.422c-46.466,11.425 -82.808,48.46 -95.082,96.895l-128.231,505.582" style="fill-opacity:0;stroke:#000;stroke-width:300px;"/></svg>