<?xml version="1.0" encoding="UTF-8" standalone="no"?><!DOCTYPE svg PUBLIC "-//W3C//DTD SVG 1.1//EN" "http://www.w3.org/Graphics/SVG/1.1/DTD/svg11.dtd"><svg width="100%" height="100%" viewBox="0 0 20402 5209" version="1.1" xmlns="http://www.w3.org/2000/svg" xmlns:xlink="http://www.w3.org/1999/xlink" xml:space="preserve" xmlns:serif="http://www.serif.com/" style="fill-rule:evenodd;clip-rule:evenodd;stroke-linecap:round;stroke-linejoin:round;stroke-miterlimit:1.5;"><path d="M1454.83,3091.2c-18.185,-1.132 -44.081,-2.601 -53.467,-2.601c-115.307,-0 -148.024,-98.684 -176.453,-201.592c-25.038,-90.628 -41.182,-189.695 -65.226,-274.716c-19.842,-70.162 -45.581,-131.908 -80.32,-178.359c-13.728,-18.355 -47.596,-47.902 -92.988,-74.131c-56.922,-32.889 -132.314,-62.596 -188.498,-67.632c-92.603,-8.3 -153.006,33.342 -171.722,109.497c-21.72,88.381 -6.781,198.322 -6.781,289.007c0,480.538 55.367,873.892 442.619,1202.16c157.133,133.201 345.715,252.379 520.235,359.03c28.761,17.577 64.222,30.928 100.375,43.132c23.632,7.978 49.143,12.134 65.877,24.359c2.261,12.902 10.272,61.569 10.214,97.921c-0.193,120.875 -23.782,275.181 -38.858,363.413l-0.742,4.011l-0.291,1.952c-6.275,36.496 -10.862,60.433 -11.238,63.972c-0.9,8.498 -0.61,14.39 -0.421,17.565c4.139,69.614 54.534,87.35 71.884,92.973c26.54,8.602 77.19,17.998 117.389,-39.246c0.835,-1.189 11.618,-15.679 19.657,-50.235c18.559,-79.78 19.508,-111.112 18.983,-116.834l-0.153,-1.383c14.667,-95.236 31.954,-229.893 32.123,-335.854c0.109,-68.148 -7.279,-127.851 -21.867,-168.92c-10.922,-30.75 -26.315,-54.516 -43.496,-71.697c-26.857,-26.857 -64.359,-47.504 -106.799,-63.471c-34.987,-13.162 -75.091,-21.757 -104.002,-39.425c-165.638,-101.223 -345.02,-213.759 -494.157,-340.181c-334.509,-283.56 -368.998,-628.153 -368.998,-1043.24c-0,-53.273 -8.673,-114.605 -7.226,-171.883l95.084,44.12c32.55,46.399 47.742,115.822 64.223,189.222c21.789,97.038 41.814,200.816 76.509,287.94c59.994,150.65 159.63,256.86 345.064,256.86c18.015,-0 57.536,5.317 86.948,3.296c35.848,-2.463 64.791,-14.423 83.033,-28.222c41.19,-31.155 78.514,-93.482 102.262,-174.949c39.385,-135.103 51.447,-330.532 59.772,-414.469c48.304,-487.03 166.739,-966.914 247.161,-1451.86c7.609,-45.884 37.599,-260.714 77.306,-419.593c10.309,-41.247 28.942,-91.797 37.716,-114.745c20.706,-5.52 37.068,-6.741 50.166,0.242c11.917,6.354 16.756,19.947 21.861,34.294c7.115,19.996 11.228,42.804 13.771,66.967c13.605,129.301 -17.336,290.42 -24.706,362.368c-9.034,88.182 -11.887,180.259 -11.887,268.942c-0,83.973 -18.171,163.552 -18.171,247.731c-0,28.906 -29.39,233.571 -25.246,284.44c3.404,41.799 22.445,65.301 32.838,75.695c34.653,34.652 90.666,53.024 161.53,12.917c33.55,-18.989 81.966,-63.63 134.06,-97.79c10.374,-6.803 20.916,-13.077 31.582,-17.906c5.486,-2.484 15.116,-5.025 18.556,-5.875c14.148,8.596 17.727,25.462 23.114,40.129c9.892,26.935 17.115,54.517 26.076,77.953c20.023,52.367 50.4,90.043 90.526,110.106c23.009,11.505 63.825,19.271 114.725,0.524c31.902,-11.75 77.865,-37.496 122.46,-60.89c20.028,-10.506 52.36,-23.998 60.31,-27.275c18.211,2.325 28.738,18.822 40.151,29.242c16.401,14.973 31.777,28.881 46.509,39.087c38.439,26.631 77.495,35.42 117.147,27.694c31.179,-6.075 68.844,-23.486 105.985,-73.573c31.954,-43.093 58.846,-130.112 75.729,-239.337c30.535,-197.548 38.932,-482.314 85.903,-607.871c10.784,-28.828 25.928,-64.585 47.043,-94.486c11.812,-16.727 23.069,-38.27 44.135,-32.283c2.286,3.366 10.178,15.281 13.787,24.017c13.588,32.899 21.209,75.785 26.038,124.299c27.273,273.975 -44.976,701.446 -52.849,795.566c-38.08,455.255 -11.498,932.892 -56.6,1383.17c-19.189,191.58 -98.738,368.553 -165.377,545.126c-14.386,38.118 -37.59,73.66 -58.357,110.205c-29.46,51.84 -54.893,105.226 -64.947,163.16c-46.204,266.262 -11.976,117.744 -11.976,391.042c-0,57.492 46.675,104.167 104.166,104.167c57.492,0 104.167,-46.675 104.167,-104.167c0,-248.365 -33.08,-113.451 8.909,-355.422c5.964,-34.368 23.335,-65.096 40.81,-95.849c26.166,-46.044 54.017,-91.548 72.142,-139.574c72.972,-193.351 156.746,-388.141 177.759,-597.925c45.213,-451.383 18.739,-930.189 56.912,-1386.56c8.247,-98.595 81.12,-546.57 52.55,-833.569c-8.803,-88.424 -27.861,-163.563 -56.393,-216.101c-29.051,-53.491 -68.607,-88.476 -114.94,-105.851c-89.226,-33.459 -163.666,-12.497 -224.71,35.809c-64.597,51.116 -111.391,142.725 -137.395,212.236c-43.548,116.405 -60.571,358.721 -84.697,560.233c-8.569,71.577 -18.161,137.362 -31.562,187.734l-1.548,5.747c-3.912,-3.27 -7.696,-6.328 -11.156,-9.01c-40.992,-31.768 -90.151,-55.593 -151.783,-55.593c-25.639,-0 -60.968,8.406 -99.393,25.353c-26.909,11.868 -68.29,32.814 -100.908,49.733c-5.453,-15.881 -11.466,-32.805 -16.458,-45.796c-23.603,-61.43 -60.722,-116.63 -125.269,-148.903c-67.882,-33.942 -143.632,-24.419 -216.486,14.269c-8.497,4.512 -17.678,9.913 -27.186,15.901c4.442,-45.098 7.95,-83.934 7.95,-93.941c0,-84.179 18.171,-163.758 18.171,-247.731c0,-81.68 2.482,-166.493 10.802,-247.712c10.189,-99.462 52.427,-347.083 6.153,-501.487c-22.946,-76.564 -65.385,-134.725 -126.314,-167.209c-57.125,-30.457 -135.355,-41.413 -241.523,-5.619c-31.545,10.635 -77.97,50.255 -107.809,126.595c-59.069,151.123 -109.159,501.144 -119.396,562.874c-81.166,489.436 -200.199,973.845 -248.95,1465.38c-6.576,66.299 -14.663,208.218 -39.801,325.802c-7.2,33.68 -15.679,65.133 -26.535,90.996c-1.81,4.312 -3.309,8.537 -4.896,12.376Z"/><path d="M2395,114.583c213.764,0 2093.37,1063.43 2200.25,1244.85c106.882,181.413 106.882,2308.28 -0,2489.7c-106.882,181.413 -1986.49,1244.85 -2200.25,1244.85c-213.764,0 -2093.37,-1063.43 -2200.25,-1244.85c-106.882,-181.414 -106.882,-2308.28 -0,-2489.7c106.882,-181.414 1986.49,-1244.85 2200.25,-1244.85Z" style="fill:#ebebeb;fill-opacity:0;stroke:#000;stroke-width:229.17px;"/><path d="M5354.74,3284.19l0,-997.011l269.523,-292.117l703.101,-0l269.522,292.117l0,193.687l-216.789,0l-0,-120.657l-146.48,-155.585l-515.608,0l-146.479,155.585l-0,850.952l146.479,155.584l515.608,0l146.48,-155.584l-0,-120.658l216.789,0l0,193.687l-269.522,292.118l-703.101,-0l-269.523,-292.118Z" style="fill-rule:nonzero;"/><path d="M6904.5,3315.95l0,-403.25l240.226,-257.19l779.271,-0l0,-301.644l-146.479,-155.584l-498.031,-0l-146.479,155.584l0,130.183l-216.79,0l0,-196.862l269.523,-292.117l682.594,-0l269.522,292.117l0,1289.13l-208.001,-0l0,-279.417l-269.522,279.417l-515.608,-0l-240.226,-260.366Zm711.89,57.154l307.607,-320.695l0,-193.687l-685.524,0l-117.183,123.833l-0,266.716l117.183,123.833l377.917,-0Z" style="fill-rule:nonzero;"/><rect x="8577.29" y="1309.22" width="216.79" height="2267.09" style="fill-rule:nonzero;"/><rect x="9262.82" y="1309.22" width="216.79" height="2267.09" style="fill-rule:nonzero;"/><path d="M9919.05,3284.19l0,-1289.13l216.79,-0l-0,1216.1l146.479,155.584l292.959,0l363.269,-393.724l0,-977.959l216.79,-0l-0,1581.25l-210.93,-0l-0,-336.571l-310.537,336.571l-445.297,-0l-269.523,-292.118Z" style="fill-rule:nonzero;"/><path d="M11594.8,1995.07l210.931,-0l-0,304.818l281.24,-304.818l348.621,-0l228.508,247.665l228.508,-247.665l459.946,-0l269.522,292.117l0,1289.13l-216.79,-0l0,-1216.1l-146.479,-155.585l-322.255,0l-205.071,222.264l-0,1149.42l-210.93,-0l-0,-1216.1l-146.48,-155.585l-246.085,0l-316.396,342.921l-0,1028.76l-216.79,-0l0,-1581.25Z" style="fill-rule:nonzero;"/><path d="M13979.5,3484.23l-0,-139.708l84.958,-92.081l128.902,0l84.958,92.081l0,139.708l-84.958,92.081l-128.902,-0l-84.958,-92.081Z" style="fill-rule:nonzero;"/><path d="M14606.4,3284.19l0,-1974.97l216.79,-0l-0,993.835l284.17,-307.993l512.678,-0l269.522,292.117l0,997.011l-269.522,292.118l-744.116,-0l-269.522,-292.118Zm919.891,82.555l146.48,-155.584l-0,-850.952l-146.48,-155.585l-357.41,0l-345.691,374.673l-0,631.864l146.479,155.584l556.622,0Z" style="fill-rule:nonzero;"/><path d="M16285,3284.19l-0,-1289.13l216.789,-0l0,1216.1l146.48,155.584l292.959,0l363.269,-393.724l-0,-977.959l216.789,-0l0,1581.25l-210.93,-0l-0,-336.571l-310.537,336.571l-445.297,-0l-269.522,-292.118Z" style="fill-rule:nonzero;"/><path d="M17858.2,3357.22l905.243,-1158.95l0,-6.35l-875.947,-0l-0,-196.862l1124.96,-0l0,219.088l-905.243,1158.95l0,6.35l905.243,-0l0,196.862l-1154.26,-0l0,-219.088Z" style="fill-rule:nonzero;"/><path d="M19246.9,3357.22l905.243,-1158.95l0,-6.35l-875.947,-0l0,-196.862l1124.96,-0l0,219.088l-905.243,1158.95l0,6.35l905.243,-0l0,196.862l-1154.26,-0l0,-219.088Z" style="fill-rule:nonzero;"/></svg>