<?xml version="1.0" encoding="UTF-8" standalone="no"?><!DOCTYPE svg PUBLIC "-//W3C//DTD SVG 1.1//EN" "http://www.w3.org/Graphics/SVG/1.1/DTD/svg11.dtd"><svg width="100%" height="100%" viewBox="0 0 2854 2886" version="1.1" xmlns="http://www.w3.org/2000/svg" xmlns:xlink="http://www.w3.org/1999/xlink" xml:space="preserve" xmlns:serif="http://www.serif.com/" style="fill-rule:evenodd;clip-rule:evenodd;stroke-linecap:round;stroke-linejoin:round;stroke-miterlimit:1.5;"><g><path d="M920.688,300l835.278,234.461l214.59,840.602l-620.688,606.142l-835.278,-234.461l-214.59,-840.602l620.688,-606.142Z" style="fill-opacity:0;"/><path d="M1001.76,11.163c-103.191,-28.965 -213.997,-0.679 -290.678,74.205l-620.688,606.141c-76.681,74.884 -107.587,184.988 -81.076,288.837l214.59,840.603c26.511,103.849 106.411,185.666 209.602,214.632l835.278,234.461c103.191,28.965 213.997,0.679 290.678,-74.205l620.688,-606.141c76.681,-74.884 107.587,-184.988 81.076,-288.837c-0,-0 -214.59,-840.603 -214.59,-840.603c-26.511,-103.849 -106.411,-185.666 -209.602,-214.632l-835.278,-234.461Zm-81.076,288.837l835.278,234.461l214.59,840.602l-620.688,606.142l-835.278,-234.461l-214.59,-840.602l620.688,-606.142Z"/><path d="M2676.08,2584.41c35.437,-34.636 36.088,-91.527 1.452,-126.964l-731.457,-748.378c-34.636,-35.437 -91.526,-36.088 -126.964,-1.452l-128.415,125.512c-35.437,34.636 -36.088,91.527 -1.452,126.964l731.457,748.378c34.636,35.437 91.526,36.088 126.964,1.452l128.415,-125.512Z" style="stroke:#000;stroke-opacity:0;stroke-width:300px;"/></g></svg>