<?xml version="1.0" encoding="UTF-8" standalone="no"?><!DOCTYPE svg PUBLIC "-//W3C//DTD SVG 1.1//EN" "http://www.w3.org/Graphics/SVG/1.1/DTD/svg11.dtd"><svg width="100%" height="100%" viewBox="0 0 1165 1266" version="1.1" xmlns="http://www.w3.org/2000/svg" xmlns:xlink="http://www.w3.org/1999/xlink" xml:space="preserve" xmlns:serif="http://www.serif.com/" style="fill-rule:evenodd;clip-rule:evenodd;stroke-linecap:round;stroke-linejoin:round;stroke-miterlimit:1.5;"><g id="sdf"><path d="M367.401,708.436c-2.758,-0.165 -5.401,-0.294 -6.66,-0.294c-21.977,-0 -26.929,-19.896 -32.347,-39.51c-5.544,-20.068 -9.121,-42.004 -14.445,-60.831c-4.648,-16.433 -10.759,-30.859 -18.896,-41.739c-3.359,-4.492 -11.555,-11.839 -22.665,-18.259c-13.447,-7.769 -31.295,-14.68 -44.568,-15.87c-24.604,-2.205 -40.395,9.259 -45.368,29.493c-4.931,20.066 -1.701,45.022 -1.701,65.611c-0,108.52 12.947,197.187 100.399,271.319c35.038,29.702 77.075,56.295 115.99,80.076c6.771,4.138 15.1,7.326 23.612,10.199c3.212,1.085 8.104,3.031 11.107,4.257c0.584,6.321 1.914,23.238 0.929,35.826c-2.996,38.291 -12.952,83.549 -16.481,97.91c-1.755,7.139 -9.522,31.301 -9.522,38.153c0,16.557 13.443,30 30,30c15.718,-0 28.629,-12.114 29.889,-27.508c0.726,-2.326 6.781,-21.779 7.899,-26.326c4.563,-18.567 18.614,-83.77 19.023,-128.911c0.261,-28.729 -7.226,-51.005 -17.232,-61.012c-6.577,-6.577 -15.707,-11.725 -26.1,-15.635c-7.332,-2.758 -15.779,-4.447 -21.837,-8.15c-36.357,-22.217 -75.744,-46.898 -108.479,-74.647c-72.263,-61.257 -79.197,-135.88 -79.197,-225.551c-0,-8.565 -1.102,-18.101 -1.544,-27.515l9.009,4.212c6.317,9.605 9.143,23.668 12.457,38.425c4.902,21.831 9.449,45.166 17.255,64.765c14.362,36.066 38.42,61.218 82.813,61.218c5.265,-0 17.714,1.378 25.28,0.046c6.955,-1.225 12.505,-3.927 16.527,-6.969c10,-7.564 19.342,-22.532 25.108,-42.311c8.835,-30.309 11.602,-74.143 13.47,-92.974c10.674,-107.621 36.862,-213.66 54.633,-320.822c1.674,-10.093 8.258,-57.351 16.993,-92.3c1.724,-6.901 4.517,-15.101 6.44,-20.418l2.149,-0.238l0.629,-0.05c0.537,0.994 1.688,3.241 2.176,4.801c1.146,3.661 1.833,7.734 2.283,12.016c2.957,28.103 -3.867,63.114 -5.469,78.751c-2.022,19.745 -2.666,40.363 -2.666,60.221c-0,18.581 -4.021,36.191 -4.021,54.818c-0,6.453 -6.489,52.15 -5.564,63.506c0.951,11.677 6.376,18.197 9.28,21.1c9.465,9.465 24.725,14.947 44.081,3.993c6.46,-3.657 15.297,-11.149 24.937,-18.285c2.611,-1.932 6.934,-4.398 9.935,-6.029c0.867,1.963 1.561,4.009 2.22,6.025c1.599,4.891 3.012,9.699 4.638,13.95c5.138,13.438 13.119,22.951 23.415,28.099c6.197,3.099 17.188,5.471 30.897,0.421c8.751,-3.223 30.593,-14.517 37.693,-18.229c0.613,0.43 1.268,0.91 1.693,1.269c2.229,1.883 4.269,3.85 6.221,5.6c6.715,6.024 13.469,10.238 19.813,12.254c7.522,2.39 15.117,2.582 23.007,0.153c7.033,-2.165 15.469,-6.805 23.749,-17.97c7.494,-10.106 14.084,-30.424 18.043,-56.039c6.687,-43.261 8.364,-105.643 18.65,-133.139c2.205,-5.893 5.261,-13.221 9.578,-19.334c0.22,-0.311 0.486,-0.651 0.781,-0.999c1.791,5.899 4.427,15.538 5.205,23.355c5.992,60.191 -9.975,154.099 -11.704,174.777c-8.424,100.703 -2.538,206.357 -12.515,305.959c-4.185,41.786 -21.647,80.353 -36.182,118.866c-3.876,10.27 -10.61,19.703 -15.9,29.654c-5.432,10.217 -9.77,20.805 -11.73,32.102c-10.057,57.957 9.443,111.44 9.443,170.928c-0,16.557 13.442,30 30,30c16.557,-0 30,-13.443 30,-30c-0,-55.948 -19.785,-106.162 -10.326,-160.669c1.525,-8.789 6.707,-16.377 11.247,-24.208c5.055,-8.721 9.954,-17.486 13.402,-26.622c16.358,-43.345 35.037,-87.042 39.748,-134.071c10.008,-99.921 4.154,-205.912 12.604,-306.937c1.837,-21.967 17.983,-121.78 11.618,-185.723c-2.056,-20.654 -6.622,-38.175 -13.287,-50.448c-7.332,-13.5 -17.408,-22.228 -29.101,-26.613c-22.425,-8.409 -41.136,-3.159 -56.477,8.981c-15.246,12.065 -26.463,33.574 -32.6,49.979c-9.763,26.098 -13.725,80.402 -19.134,125.579c-1.386,11.582 -2.902,22.473 -4.791,31.832c-8.912,-5.63 -19.3,-9.437 -31.69,-9.437c-6.39,0 -15.223,1.978 -24.799,6.202c-4.21,1.856 -10.037,4.733 -15.623,7.578l-1.056,-2.841c-5.833,-15.18 -15.15,-28.698 -31.099,-36.673c-15.367,-7.683 -32.359,-6.757 -48.947,0.659c0.39,-4.218 0.627,-7.346 0.627,-8.555c-0,-18.627 4.021,-36.237 4.021,-54.818c-0,-17.841 0.537,-36.367 2.354,-54.107c2.309,-22.544 11.594,-78.675 1.105,-113.674c-5.662,-18.894 -16.302,-33.121 -31.339,-41.138c-13.941,-7.432 -33.024,-10.431 -58.934,-1.696c-8.09,2.728 -20.457,12.491 -28.109,32.069c-13.219,33.82 -24.513,112.133 -26.804,125.947c-17.985,108.454 -44.345,215.797 -55.148,324.716c-1.439,14.514 -3.185,45.586 -8.688,71.328c-1.157,5.412 -3.518,12.246 -5.33,17.096Z"/><path d="M582.299,35c51.303,0 502.409,255.224 528.06,298.763c25.652,43.54 25.652,553.988 0,597.527c-25.651,43.539 -476.757,298.764 -528.06,298.764c-51.303,-0 -502.409,-255.225 -528.06,-298.764c-25.652,-43.539 -25.652,-553.987 -0,-597.527c25.651,-43.539 476.757,-298.763 528.06,-298.763Z" style="fill:#ebebeb;fill-opacity:0;stroke:#000;stroke-width:70px;"/></g></svg>