<?xml version="1.0" encoding="UTF-8" standalone="no"?><!DOCTYPE svg PUBLIC "-//W3C//DTD SVG 1.1//EN" "http://www.w3.org/Graphics/SVG/1.1/DTD/svg11.dtd"><svg width="100%" height="100%" viewBox="0 0 4753 5172" version="1.1" xmlns="http://www.w3.org/2000/svg" xmlns:xlink="http://www.w3.org/1999/xlink" xml:space="preserve" xmlns:serif="http://www.serif.com/" style="fill-rule:evenodd;clip-rule:evenodd;stroke-linecap:round;stroke-linejoin:round;stroke-miterlimit:1.5;"><path d="M1574.58,2862.56c-16.214,-0.997 -36.81,-2.14 -44.694,-2.14c-103.231,-0 -131.418,-89.308 -156.87,-181.438c-23.088,-83.573 -37.977,-174.926 -60.149,-253.328c-18.518,-65.478 -42.611,-123.072 -75.032,-166.423c-12.936,-17.297 -44.773,-45.243 -87.551,-69.961c-53.222,-30.753 -123.748,-58.436 -176.28,-63.144c-88.956,-7.974 -146.756,32.377 -164.735,105.532c-20.135,81.93 -6.426,183.843 -6.426,267.91c-0,444.961 51.653,809.05 410.234,1113.02c145.111,123.009 319.253,233.085 480.419,331.576c26.873,16.422 59.987,28.935 93.765,40.338c21.198,7.156 44.24,10.501 59.096,21.572c2.058,11.288 10.345,59.483 10.018,95.586c-1.539,169.889 -55.538,415.113 -72.711,484.991c-7.068,28.757 -39.011,125.906 -39.011,153.502c0,56.341 45.742,102.083 102.083,102.083c53.975,0 98.223,-41.98 101.814,-95.041c2.52,-8.122 28.591,-92.33 33.381,-111.817c18.827,-76.608 76.915,-345.616 78.603,-531.867c1.012,-111.724 -26.177,-198.889 -65.092,-237.804c-25.313,-25.314 -60.614,-44.854 -100.615,-59.903c-31.901,-12.002 -68.506,-19.742 -94.868,-35.851c-152.463,-93.172 -317.588,-196.739 -454.863,-313.105c-306.893,-260.151 -338.087,-576.454 -338.087,-957.276c0,-46.343 -7.242,-99.344 -6.889,-149.486l77.504,36.014c29.238,42.21 42.768,105.085 57.672,171.461c20.159,89.781 38.724,185.788 70.825,266.395c56.259,141.274 149.872,240.635 323.765,240.635c16.696,-0 53.323,4.897 80.581,3.024c34.461,-2.367 62.251,-13.964 79.788,-27.229c38.746,-29.308 74.101,-87.796 96.442,-164.433c36.417,-124.925 47.624,-305.626 55.322,-383.24c44.524,-448.917 153.705,-891.245 227.833,-1338.24c7.007,-42.253 34.613,-240.087 71.179,-386.394c9.091,-36.374 25.229,-80.752 33.397,-102.335c15.832,-4.078 28.55,-4.907 38.929,0.627c9.724,5.185 13.142,16.607 17.308,28.314c6.411,18.019 10.089,38.578 12.38,60.352c12.497,118.774 -16.011,266.77 -22.781,332.86c-8.35,81.507 -10.992,166.614 -10.992,248.584c0,77.424 -16.754,150.797 -16.754,228.411c0,26.701 -27.084,215.76 -23.257,262.748c3.311,40.649 21.92,63.465 32.027,73.572c33.512,33.512 87.648,51.682 156.179,12.896c31.013,-17.553 75.787,-58.793 123.942,-90.37c9.297,-6.096 18.739,-11.73 28.298,-16.058c3.734,-1.69 9.966,-3.56 13.354,-4.502c10.29,7.481 12.645,21.064 16.905,32.665c9.131,24.86 15.8,50.317 24.071,71.948c19.076,49.891 48.178,85.651 86.406,104.765c22.176,11.088 61.512,18.816 110.567,0.749c41.196,-15.173 151.091,-72.203 167.38,-80.699c14.455,2.667 22.662,16.641 31.996,25.163c15.34,14.005 29.735,26.997 43.514,36.544c36.941,25.592 74.501,33.922 112.607,26.498c29.802,-5.807 65.915,-22.291 101.416,-70.167c29.83,-40.228 55.18,-121.384 70.941,-223.347c28.093,-181.747 35.677,-443.756 78.891,-559.271c9.785,-26.157 23.493,-58.619 42.652,-85.75c9.07,-12.844 16.673,-30.743 32.145,-27.917c3.009,5.249 12.387,22.139 16.424,34.865c8.748,27.582 14.264,60.646 17.898,97.151c25.109,252.23 -41.488,645.769 -48.736,732.42c-35.108,419.718 -10.596,860.072 -52.177,1275.2c-17.64,176.112 -90.862,338.767 -152.121,501.083c-13.155,34.858 -34.415,67.339 -53.406,100.759c-27.51,48.409 -51.194,98.287 -60.582,152.388c-41.676,240.167 39.682,461.764 39.682,708.279c0,56.341 45.742,102.083 102.084,102.083c56.341,-0 102.083,-45.742 102.083,-102.083c-0,-234.469 -82.328,-444.942 -42.688,-673.372c5.38,-31.005 21.162,-58.68 36.928,-86.423c24.281,-42.728 50.095,-84.973 66.915,-129.541c67.464,-178.759 144.828,-358.873 164.255,-552.825c41.69,-416.213 17.284,-857.712 52.483,-1278.53c7.615,-91.035 74.822,-504.668 48.442,-769.663c-8.21,-82.474 -26.085,-152.53 -52.697,-201.533c-27.57,-50.765 -65.192,-83.878 -109.164,-100.368c-84.596,-31.724 -155.177,-11.865 -213.054,33.935c-60.386,47.785 -104.28,133.325 -128.589,198.305c-40.262,107.621 -56.127,331.634 -78.432,517.94c-7.653,63.929 -16.178,122.824 -27.985,168.535l-3.131,-2.506c-38.787,-30.059 -85.33,-52.524 -143.646,-52.524c-24.262,0 -57.718,7.853 -94.08,23.89c-23.234,10.247 -58.196,27.86 -87.216,42.842c-4.364,-12.678 -8.984,-25.608 -12.92,-35.852c-22.293,-58.018 -57.475,-110.046 -118.437,-140.527c-64.318,-32.159 -136.109,-23.432 -205.137,13.224c-4.834,2.567 -9.907,5.445 -15.12,8.602c3.584,-36.584 6.257,-66.854 6.257,-75.221c0,-77.614 16.754,-150.987 16.754,-228.411c0,-75.107 2.278,-153.095 9.929,-227.778c9.441,-92.171 48.331,-321.643 5.45,-464.727c-21.665,-72.29 -61.881,-127.095 -119.408,-157.765c-53.8,-28.684 -127.47,-39.285 -227.458,-5.575c-30.049,10.131 -74.675,47.528 -103.098,120.247c-54.591,139.667 -100.957,463.138 -110.418,520.188c-74.857,451.397 -184.625,898.16 -229.587,1351.5c-6.049,60.992 -13.468,191.555 -36.593,299.726c-6.553,30.654 -14.248,59.286 -24.128,82.825c-0.968,2.306 -2.21,4.874 -3.548,7.45Z"/><path d="M2376.25,95.833c213.764,0 2093.37,1063.43 2200.25,1244.85c106.882,181.413 106.882,2308.28 -0,2489.7c-106.882,181.413 -1986.49,1244.85 -2200.25,1244.85c-213.764,0 -2093.37,-1063.43 -2200.25,-1244.85c-106.882,-181.414 -106.882,-2308.28 -0,-2489.7c106.882,-181.414 1986.49,-1244.85 2200.25,-1244.85Z" style="fill:#ebebeb;fill-opacity:0;stroke:#000;stroke-width:191.67px;"/></svg>